{"asset":{"version":"2.0","generator":"Blockbench 4.9.2 glTF exporter"},"scenes":[{"nodes":[13],"name":"blockbench_export"}],"scene":0,"nodes":[{"name":"plane","mesh":0},{"rotation":[0,-0.7071067811865476,0,0.7071067811865476],"translation":[-0.453125,0,1.21875],"name":"yellow","mesh":1},{"rotation":[0,-0.7071067811865476,0,0.7071067811865476],"translation":[-0.453125,0,1.21875],"name":"yellow","mesh":2},{"rotation":[0,0.7071067811865476,0,0.7071067811865476],"translation":[0.34375,0.125,0.46875],"name":"yellow","children":[1,2]},{"rotation":[0,-0.7071067811865476,0,0.7071067811865476],"translation":[-0.4531249999999999,0,1.21875],"name":"green","mesh":3},{"rotation":[0,-0.7071067811865476,0,0.7071067811865476],"translation":[-0.4531249999999999,0,1.21875],"name":"green","mesh":4},{"translation":[-0.7343750000000001,0.125,-0.90625],"name":"green","children":[4,5]},{"rotation":[0,-0.7071067811865476,0,0.7071067811865476],"translation":[-0.4531249999999999,0,1.21875],"name":"blue","mesh":5},{"rotation":[0,-0.7071067811865476,0,0.7071067811865476],"translation":[-0.4531249999999999,0,1.21875],"name":"blue","mesh":6},{"translation":[-0.7500000000000001,0.125,0.859375],"name":"blue","children":[7,8]},{"rotation":[0,-0.7071067811865476,0,0.7071067811865476],"translation":[-0.453125,0,1.21875],"name":"blue","mesh":7},{"rotation":[0,-0.7071067811865476,0,0.7071067811865476],"translation":[-0.453125,0,1.21875],"name":"blue","mesh":8},{"translation":[1.046875,0.125,-0.640625],"name":"blue2","children":[10,11]},{"children":[0,3,6,9,12]}],"bufferViews":[{"buffer":0,"byteOffset":0,"byteLength":48,"target":34962,"byteStride":12},{"buffer":0,"byteOffset":48,"byteLength":48,"target":34962,"byteStride":12},{"buffer":0,"byteOffset":96,"byteLength":32,"target":34962,"byteStride":8},{"buffer":0,"byteOffset":128,"byteLength":12,"target":34963},{"buffer":0,"byteOffset":140,"byteLength":288,"target":34962,"byteStride":12},{"buffer":0,"byteOffset":428,"byteLength":288,"target":34962,"byteStride":12},{"buffer":0,"byteOffset":716,"byteLength":192,"target":34962,"byteStride":8},{"buffer":0,"byteOffset":908,"byteLength":72,"target":34963},{"buffer":0,"byteOffset":980,"byteLength":288,"target":34962,"byteStride":12},{"buffer":0,"byteOffset":1268,"byteLength":288,"target":34962,"byteStride":12},{"buffer":0,"byteOffset":1556,"byteLength":192,"target":34962,"byteStride":8},{"buffer":0,"byteOffset":1748,"byteLength":72,"target":34963},{"buffer":0,"byteOffset":1820,"byteLength":288,"target":34962,"byteStride":12},{"buffer":0,"byteOffset":2108,"byteLength":288,"target":34962,"byteStride":12},{"buffer":0,"byteOffset":2396,"byteLength":192,"target":34962,"byteStride":8},{"buffer":0,"byteOffset":2588,"byteLength":72,"target":34963},{"buffer":0,"byteOffset":2660,"byteLength":288,"target":34962,"byteStride":12},{"buffer":0,"byteOffset":2948,"byteLength":288,"target":34962,"byteStride":12},{"buffer":0,"byteOffset":3236,"byteLength":192,"target":34962,"byteStride":8},{"buffer":0,"byteOffset":3428,"byteLength":72,"target":34963},{"buffer":0,"byteOffset":3500,"byteLength":288,"target":34962,"byteStride":12},{"buffer":0,"byteOffset":3788,"byteLength":288,"target":34962,"byteStride":12},{"buffer":0,"byteOffset":4076,"byteLength":192,"target":34962,"byteStride":8},{"buffer":0,"byteOffset":4268,"byteLength":72,"target":34963},{"buffer":0,"byteOffset":4340,"byteLength":288,"target":34962,"byteStride":12},{"buffer":0,"byteOffset":4628,"byteLength":288,"target":34962,"byteStride":12},{"buffer":0,"byteOffset":4916,"byteLength":192,"target":34962,"byteStride":8},{"buffer":0,"byteOffset":5108,"byteLength":72,"target":34963},{"buffer":0,"byteOffset":5180,"byteLength":288,"target":34962,"byteStride":12},{"buffer":0,"byteOffset":5468,"byteLength":288,"target":34962,"byteStride":12},{"buffer":0,"byteOffset":5756,"byteLength":192,"target":34962,"byteStride":8},{"buffer":0,"byteOffset":5948,"byteLength":36,"target":34963},{"buffer":0,"byteOffset":5984,"byteLength":12,"target":34963},{"buffer":0,"byteOffset":5996,"byteLength":24,"target":34963},{"buffer":0,"byteOffset":6020,"byteLength":288,"target":34962,"byteStride":12},{"buffer":0,"byteOffset":6308,"byteLength":288,"target":34962,"byteStride":12},{"buffer":0,"byteOffset":6596,"byteLength":192,"target":34962,"byteStride":8},{"buffer":0,"byteOffset":6788,"byteLength":36,"target":34963},{"buffer":0,"byteOffset":6824,"byteLength":12,"target":34963},{"buffer":0,"byteOffset":6836,"byteLength":24,"target":34963}],"buffers":[{"byteLength":6860,"uri":"data:application/octet-stream;base64,"}],"accessors":[{"bufferView":0,"componentType":5126,"count":4,"max":[1.5,0,1.5],"min":[-1.5,0,-1.5],"type":"VEC3"},{"bufferView":1,"componentType":5126,"count":4,"max":[0,1,0],"min":[0,1,0],"type":"VEC3"},{"bufferView":2,"componentType":5126,"count":4,"max":[0.625,0.01953124813735485],"min":[0,0],"type":"VEC2"},{"bufferView":3,"componentType":5123,"count":6,"max":[3],"min":[0],"type":"SCALAR"},{"bufferView":4,"componentType":5126,"count":24,"max":[-0.96875,0.125,-0.328125],"min":[-1.21875,-0.125,-0.578125],"type":"VEC3"},{"bufferView":5,"componentType":5126,"count":24,"max":[1,1,1],"min":[-1,-1,-1],"type":"VEC3"},{"bufferView":6,"componentType":5126,"count":24,"max":[0.99609375,0.1249999925494194],"min":[0,0],"type":"VEC2"},{"bufferView":7,"componentType":5123,"count":36,"max":[23],"min":[0],"type":"SCALAR"},{"bufferView":8,"componentType":5126,"count":24,"max":[-1.21875,0.125,-0.328125],"min":[-1.46875,-0.125,-0.578125],"type":"VEC3"},{"bufferView":9,"componentType":5126,"count":24,"max":[1,1,1],"min":[-1,-1,-1],"type":"VEC3"},{"bufferView":10,"componentType":5126,"count":24,"max":[0.99609375,0.1249999925494194],"min":[0,0],"type":"VEC2"},{"bufferView":11,"componentType":5123,"count":36,"max":[23],"min":[0],"type":"SCALAR"},{"bufferView":12,"componentType":5126,"count":24,"max":[-1.21875,0.125,-0.328125],"min":[-1.46875,-0.125,-0.578125],"type":"VEC3"},{"bufferView":13,"componentType":5126,"count":24,"max":[1,1,1],"min":[-1,-1,-1],"type":"VEC3"},{"bufferView":14,"componentType":5126,"count":24,"max":[0.99609375,0.1249999925494194],"min":[0,0],"type":"VEC2"},{"bufferView":15,"componentType":5123,"count":36,"max":[23],"min":[0],"type":"SCALAR"},{"bufferView":16,"componentType":5126,"count":24,"max":[-0.96875,0.125,-0.328125],"min":[-1.21875,-0.125,-0.578125],"type":"VEC3"},{"bufferView":17,"componentType":5126,"count":24,"max":[1,1,1],"min":[-1,-1,-1],"type":"VEC3"},{"bufferView":18,"componentType":5126,"count":24,"max":[0.99609375,0.1249999925494194],"min":[0,0],"type":"VEC2"},{"bufferView":19,"componentType":5123,"count":36,"max":[23],"min":[0],"type":"SCALAR"},{"bufferView":20,"componentType":5126,"count":24,"max":[-0.96875,0.125,-0.328125],"min":[-1.21875,-0.125,-0.578125],"type":"VEC3"},{"bufferView":21,"componentType":5126,"count":24,"max":[1,1,1],"min":[-1,-1,-1],"type":"VEC3"},{"bufferView":22,"componentType":5126,"count":24,"max":[0.99609375,0.1249999925494194],"min":[0,0],"type":"VEC2"},{"bufferView":23,"componentType":5123,"count":36,"max":[23],"min":[0],"type":"SCALAR"},{"bufferView":24,"componentType":5126,"count":24,"max":[-1.21875,0.125,-0.328125],"min":[-1.46875,-0.125,-0.578125],"type":"VEC3"},{"bufferView":25,"componentType":5126,"count":24,"max":[1,1,1],"min":[-1,-1,-1],"type":"VEC3"},{"bufferView":26,"componentType":5126,"count":24,"max":[0.99609375,0.1249999925494194],"min":[0,0],"type":"VEC2"},{"bufferView":27,"componentType":5123,"count":36,"max":[23],"min":[0],"type":"SCALAR"},{"bufferView":28,"componentType":5126,"count":24,"max":[-0.96875,0.125,-0.328125],"min":[-1.21875,-0.125,-0.578125],"type":"VEC3"},{"bufferView":29,"componentType":5126,"count":24,"max":[1,1,1],"min":[-1,-1,-1],"type":"VEC3"},{"bufferView":30,"componentType":5126,"count":24,"max":[0.99609375,0.1249999925494194],"min":[0,0],"type":"VEC2"},{"bufferView":31,"componentType":5123,"count":18,"max":[11],"min":[0],"type":"SCALAR"},{"bufferView":32,"componentType":5123,"count":6,"max":[15],"min":[12],"type":"SCALAR"},{"bufferView":33,"componentType":5123,"count":12,"max":[23],"min":[16],"type":"SCALAR"},{"bufferView":34,"componentType":5126,"count":24,"max":[-1.21875,0.125,-0.328125],"min":[-1.46875,-0.125,-0.578125],"type":"VEC3"},{"bufferView":35,"componentType":5126,"count":24,"max":[1,1,1],"min":[-1,-1,-1],"type":"VEC3"},{"bufferView":36,"componentType":5126,"count":24,"max":[0.99609375,0.1249999925494194],"min":[0,0],"type":"VEC2"},{"bufferView":37,"componentType":5123,"count":18,"max":[11],"min":[0],"type":"SCALAR"},{"bufferView":38,"componentType":5123,"count":6,"max":[15],"min":[12],"type":"SCALAR"},{"bufferView":39,"componentType":5123,"count":12,"max":[23],"min":[16],"type":"SCALAR"}],"materials":[{"pbrMetallicRoughness":{"metallicFactor":0,"roughnessFactor":1,"baseColorTexture":{"index":0}},"alphaMode":"MASK","alphaCutoff":0.05,"doubleSided":true},{"pbrMetallicRoughness":{"metallicFactor":0,"roughnessFactor":1,"baseColorTexture":{"index":1}},"alphaMode":"MASK","alphaCutoff":0.05,"doubleSided":true},{"pbrMetallicRoughness":{"metallicFactor":0,"roughnessFactor":1,"baseColorTexture":{"index":2}},"alphaMode":"MASK","alphaCutoff":0.05,"doubleSided":true},{"pbrMetallicRoughness":{"metallicFactor":0,"roughnessFactor":1,"baseColorTexture":{"index":3}},"alphaMode":"MASK","alphaCutoff":0.05,"doubleSided":true},{"pbrMetallicRoughness":{"metallicFactor":0,"roughnessFactor":1,"baseColorTexture":{"index":4}},"alphaMode":"MASK","alphaCutoff":0.05,"doubleSided":true}],"textures":[{"sampler":0,"source":0},{"sampler":1,"source":1},{"sampler":2,"source":2},{"sampler":3,"source":3},{"sampler":4,"source":4}],"samplers":[{"magFilter":9728,"minFilter":9728,"wrapS":33071,"wrapT":33071},{"magFilter":9728,"minFilter":9728,"wrapS":33071,"wrapT":33071},{"magFilter":9728,"minFilter":9728,"wrapS":33071,"wrapT":33071},{"magFilter":9728,"minFilter":9728,"wrapS":33071,"wrapT":33071},{"magFilter":9728,"minFilter":9728,"wrapS":33071,"wrapT":33071}],"images":[{"mimeType":"image/png","uri":"data:image/png;base64,"},{"mimeType":"image/png","uri":"data:image/png;base64,"},{"mimeType":"image/png","uri":"data:image/png;base64,"},{"mimeType":"image/png","uri":"data:image/png;base64,"},{"mimeType":"image/png","uri":"data:image/png;base64,"}],"meshes":[{"primitives":[{"mode":4,"attributes":{"POSITION":0,"NORMAL":1,"TEXCOORD_0":2},"indices":3,"material":0}]},{"primitives":[{"mode":4,"attributes":{"POSITION":4,"NORMAL":5,"TEXCOORD_0":6},"indices":7,"material":1}]},{"primitives":[{"mode":4,"attributes":{"POSITION":8,"NORMAL":9,"TEXCOORD_0":10},"indices":11,"material":1}]},{"primitives":[{"mode":4,"attributes":{"POSITION":12,"NORMAL":13,"TEXCOORD_0":14},"indices":15,"material":2}]},{"primitives":[{"mode":4,"attributes":{"POSITION":16,"NORMAL":17,"TEXCOORD_0":18},"indices":19,"material":2}]},{"primitives":[{"mode":4,"attributes":{"POSITION":20,"NORMAL":21,"TEXCOORD_0":22},"indices":23,"material":3}]},{"primitives":[{"mode":4,"attributes":{"POSITION":24,"NORMAL":25,"TEXCOORD_0":26},"indices":27,"material":3}]},{"primitives":[{"mode":4,"attributes":{"POSITION":28,"NORMAL":29,"TEXCOORD_0":30},"indices":31,"material":4},{"mode":4,"attributes":{"POSITION":28,"NORMAL":29,"TEXCOORD_0":30},"indices":32,"material":3},{"mode":4,"attributes":{"POSITION":28,"NORMAL":29,"TEXCOORD_0":30},"indices":33,"material":4}]},{"primitives":[{"mode":4,"attributes":{"POSITION":34,"NORMAL":35,"TEXCOORD_0":36},"indices":37,"material":4},{"mode":4,"attributes":{"POSITION":34,"NORMAL":35,"TEXCOORD_0":36},"indices":38,"material":3},{"mode":4,"attributes":{"POSITION":34,"NORMAL":35,"TEXCOORD_0":36},"indices":39,"material":4}]}]}